[   2s] CDP targets: 1
[   2s]   page: file:///C:/Users/runneradmin/.comfy-test-cache/desktop/ComfyUI/resources/desktop-ui/index.html#/not-supported | ComfyUI
[   3s] Main page: file:///C:/Users/runneradmin/.comfy-test-cache/desktop/ComfyUI/resources/desktop-ui/index.html#/not-supported | ComfyUI
[   3s] Buttons: ['Learn More', 'Report Issue', 'Continue']
[   3s]   wizard: COMFY_TEST_GPU=0 platform=win32 preferred=['CPU']
[   6s]   clicked [BTN|Continue]
[   9s]   url: file:///C:/Users/runneradmin/.comfy-test-cache/desktop/ComfyUI/resources/desktop-ui/index.html#/not-supported -> file:///C:/Users/runneradmin/.comfy-test-cache/desktop/ComfyUI/resources/desktop-ui/index.html#/install
[  10s]   clicked [TILE|CPU]
[  13s]   clicked [BTN|Next]
[  20s]   clicked [BTN|Next]
[  24s]   clicked [BTN|Install]
[  27s]   url: file:///C:/Users/runneradmin/.comfy-test-cache/desktop/ComfyUI/resources/desktop-ui/index.html#/install -> file:///C:/Users/runneradmin/.comfy-test-cache/desktop/ComfyUI/resources/desktop-ui/index.html#/server-start
[ 138s]   /system_stats up after 134s
[ 138s]   app: waiting for backend stability (continuous /system_stats up for 30s)
[ 138s]   app: /system_stats up; awaiting 30s of stability
[ 169s]   app: backend stable for 30s; proceeding
[ 169s]   capturing canvas load...
[ 177s]   post: waiting for Cloud upsell
[ 210s]   post: Cloud upsell not found, skipping
[ 210s]   post: pressed Escape (Cloud upsell fallback)
[ 212s]   post: waiting for Close Templates
[ 224s]   post: Close Templates not found, skipping
[ 224s]   post: pressed Escape (Close Templates fallback)
[ 226s]   post: waiting for Extensions
[ 227s]   post: clicked Extensions via [button[aria-label="Extensions"]:visible]
[ 229s]   ext: node meta = display='SAM3' publisher='pznodes' version='0.1.18'
[ 232s]   ext: searching "SAM3"
[ 236s]   ext: clicking SAM3 by pznodes tile
[ 239s]   ext: scrolling to + opening version selector
[ 243s]   ext: selected 0.1.18
[ 244s]   ext: clicking right-panel Install
[ 246s]   ext: clicked Install (last of 8 visible)
[ 254s]   ext: waiting for "Apply Changes" toast
[ 254s]   ext: clicked Apply Changes
[ 259s]   app: Apply Changes already triggered in-app restart, skipping pkill
[ 264s]   app: relaunching with CDP
[ 264s]   app: waiting for CDP
[ 265s]   app: CDP up after 1s
[ 265s]   app: reconnecting Playwright
[ 266s]   app: attached to http://127.0.0.1:8000/
[ 363s]   app: server ready after 24s
[ 363s]   app: waiting for main canvas (window.app.graph)
[ 363s]   app: canvas ready after 1s (http://127.0.0.1:8000/)
[ 368s]   app: forcing renderer reload to refresh node-pack manifest
[ 370s]   app: canvas re-ready after reload in 2s
[ 374s]   ext: closing Nodes Manager dialog
[ 374s]   ext: dismissing What's New popup
[ 374s]   ext: closed What's New popup
[ 376s]   ext: dismissing Node Pack Issues modal (if present)
[ 377s]   ext: closed Node Pack Issues modal
[ 379s]   ext: opening Templates sidebar
[ 380s]   ext: clicked Templates
[ 384s]   ext: locating "comfyui-sam3" section in Templates panel
[ 385s]   ext: clicked comfyui-sam3 section
[ 388s]   ext: fetching comfy-test.toml from https://raw.githubusercontent.com/PozzettiAndrea/ComfyUI-SAM3/main/comfy-test.toml
[ 388s]   ext: cpu spec = exclude ['video_point_prompt']
[ 388s]   ext: picking first matching comfyui-sam3 template
[ 388s]   ext: 5 visible cards
[ 390s]   ext: clicked template image_seg_point
[ 395s]   ext: installing WS execution listener
[ 395s]   ext: clicking Run
[ 396s]   ext: clicked Run
[ 396s]   ext: waiting for execution_success / execution_error
[ 497s]   ext: WS events=228 elapsed=101s
[ 497s]     ws: {'type': 'progress_state', 'ts': 1778491617284}
[ 497s]     ws: {'type': 'progress_state', 'ts': 1778491617286}
[ 497s]     ws: {'type': 'executing', 'ts': 1778491617295}
[ 497s]     ws: {'type': 'progress_state', 'ts': 1778491690553}
[ 497s]     ws: {'type': 'progress_state', 'ts': 1778491690555}
[ 497s]     ws: {'type': 'executing', 'ts': 1778491690556}
[ 497s]     ws: {'type': 'executed', 'ts': 1778491690611}
[ 497s]     ws: {'type': 'progress_state', 'ts': 1778491690613}
[ 497s]     ws: {'type': 'progress_state', 'ts': 1778491690616}
[ 497s]     ws: {'type': 'executing', 'ts': 1778491690616}
[ 497s]     ws: {'type': 'executed', 'ts': 1778491690696}
[ 497s]     ws: {'type': 'progress_state', 'ts': 1778491690698}
[ 497s]     ws: {'type': 'execution_success', 'ts': 1778491690701}
[ 497s]     ws: {'type': 'status', 'ts': 1778491690702}
[ 497s]     ws: {'type': 'executing', 'ts': 1778491690703}
[ 497s]   ext: execution_success after 101s
[ 502s]   ext: fetching comfy-test.toml from https://raw.githubusercontent.com/PozzettiAndrea/ComfyUI-SAM3/main/comfy-test.toml
[ 502s]   ext: cpu spec = exclude ['video_point_prompt']
[ 502s]   loop: workflows/ from $COMFY_TEST_WORKFLOWS -> ['image_seg_point', 'image_seg_text', 'scene_seg', 'scene_seg_interactive', 'video_point_prompt']
[ 502s]   loop: spec=exclude items=['video_point_prompt'] -> 4 workflow(s) ['image_seg_point', 'image_seg_text', 'scene_seg', 'scene_seg_interactive']
[ 502s]   loop: matching=4 first_ran='image_seg_point' remaining=3 -> ['image_seg_text', 'scene_seg', 'scene_seg_interactive']
[ 502s]   loop: full restart for workflow 2/4 (image_seg_text)
[ 502s]   loop: closing current browser
[ 502s]   loop: killing ComfyUI process
[ 508s]   loop: launching ComfyUI with --remote-debugging-port=0
[ 508s]   loop: waiting for DevToolsActivePort at C:\Users\runneradmin\AppData\Roaming\ComfyUI\DevToolsActivePort
[ 510s]   loop: DevToolsActivePort -> 58138 after 3s
[ 510s]   loop: reconnecting Playwright on port 58138
[ 510s]   loop: attached to file:///C:/Users/runneradmin/.comfy-test-cache/desktop/ComfyUI/resources/desktop-ui/index.html#/desktop-start
[ 510s]   loop: server ready after 1s
[ 539s]   loop: canvas ready after 25s
[ 539s]   loop: forcing renderer reload
[ 541s]   loop: canvas ready after 2s
[ 544s]   ext: closing Nodes Manager dialog
[ 544s]   ext: dismissing What's New popup
[ 544s]   ext: What's New popup not present
[ 544s]   ext: dismissing Node Pack Issues modal (if present)
[ 545s]   ext: Node Pack Issues modal not present
[ 545s]   ext: opening Templates sidebar
[ 545s]   ext: clicked Templates
[ 549s]   ext: locating "comfyui-sam3" section in Templates panel
[ 551s]   ext: clicked comfyui-sam3 section
[ 553s]   ext: clicking template image_seg_text
[ 555s]   ext: clicked template image_seg_text
[ 560s]   ext: installing WS execution listener
[ 560s]   ext: clicking Run
[ 561s]   ext: clicked Run
[ 561s]   ext: waiting for execution_success / execution_error
[ 650s]   ext: WS events=24 elapsed=88s
[ 650s]     ws: {'type': 'progress_state', 'ts': 1778491765745}
[ 650s]     ws: {'type': 'progress_state', 'ts': 1778491765747}
[ 650s]     ws: {'type': 'executing', 'ts': 1778491765748}
[ 650s]     ws: {'type': 'progress_state', 'ts': 1778491842873}
[ 650s]     ws: {'type': 'progress_state', 'ts': 1778491842876}
[ 650s]     ws: {'type': 'executing', 'ts': 1778491842877}
[ 650s]     ws: {'type': 'executed', 'ts': 1778491842989}
[ 650s]     ws: {'type': 'progress_state', 'ts': 1778491843004}
[ 650s]     ws: {'type': 'progress_state', 'ts': 1778491843006}
[ 650s]     ws: {'type': 'executing', 'ts': 1778491843007}
[ 650s]     ws: {'type': 'executed', 'ts': 1778491843197}
[ 650s]     ws: {'type': 'progress_state', 'ts': 1778491843199}
[ 650s]     ws: {'type': 'execution_success', 'ts': 1778491843205}
[ 650s]     ws: {'type': 'status', 'ts': 1778491843207}
[ 650s]     ws: {'type': 'executing', 'ts': 1778491843207}
[ 650s]   ext: execution_success after 88s
[ 655s]   loop: full restart for workflow 3/4 (scene_seg)
[ 655s]   loop: closing current browser
[ 655s]   loop: killing ComfyUI process
[ 660s]   loop: launching ComfyUI with --remote-debugging-port=0
[ 660s]   loop: waiting for DevToolsActivePort at C:\Users\runneradmin\AppData\Roaming\ComfyUI\DevToolsActivePort
[ 662s]   loop: DevToolsActivePort -> 58405 after 3s
[ 662s]   loop: reconnecting Playwright on port 58405
[ 663s]   loop: attached to file:///C:/Users/runneradmin/.comfy-test-cache/desktop/ComfyUI/resources/desktop-ui/index.html#/desktop-start
[ 663s]   loop: server ready after 1s
[ 688s]   loop: canvas ready after 22s
[ 688s]   loop: forcing renderer reload
[ 690s]   loop: canvas ready after 2s
[ 694s]   ext: closing Nodes Manager dialog
[ 694s]   ext: dismissing What's New popup
[ 694s]   ext: What's New popup not present
[ 694s]   ext: dismissing Node Pack Issues modal (if present)
[ 694s]   ext: Node Pack Issues modal not present
[ 694s]   ext: opening Templates sidebar
[ 694s]   ext: clicked Templates
[ 698s]   ext: locating "comfyui-sam3" section in Templates panel
[ 700s]   ext: clicked comfyui-sam3 section
[ 702s]   ext: clicking template scene_seg
[ 704s]   ext: clicked template scene_seg
[ 709s]   ext: installing WS execution listener
[ 709s]   ext: clicking Run
[ 710s]   ext: clicked Run
[ 710s]   ext: waiting for execution_success / execution_error
[ 806s]   ext: WS events=55 elapsed=96s
[ 806s]     ws: {'type': 'executing', 'ts': 1778491998163}
[ 806s]     ws: {'type': 'progress_state', 'ts': 1778491998553}
[ 806s]     ws: {'type': 'progress_state', 'ts': 1778491998572}
[ 806s]     ws: {'type': 'executing', 'ts': 1778491998573}
[ 806s]     ws: {'type': 'progress_state', 'ts': 1778491998594}
[ 806s]     ws: {'type': 'progress_state', 'ts': 1778491998598}
[ 806s]     ws: {'type': 'executing', 'ts': 1778491998613}
[ 806s]     ws: {'type': 'progress_state', 'ts': 1778491999438}
[ 806s]     ws: {'type': 'progress_state', 'ts': 1778491999443}
[ 806s]     ws: {'type': 'executing', 'ts': 1778491999443}
[ 806s]     ws: {'type': 'executed', 'ts': 1778491999694}
[ 806s]     ws: {'type': 'progress_state', 'ts': 1778491999707}
[ 806s]     ws: {'type': 'execution_success', 'ts': 1778491999711}
[ 806s]     ws: {'type': 'status', 'ts': 1778491999713}
[ 806s]     ws: {'type': 'executing', 'ts': 1778491999982}
[ 806s]   ext: execution_success after 96s
[ 811s]   loop: full restart for workflow 4/4 (scene_seg_interactive)
[ 811s]   loop: closing current browser
[ 811s]   loop: killing ComfyUI process
[ 817s]   loop: launching ComfyUI with --remote-debugging-port=0
[ 817s]   loop: waiting for DevToolsActivePort at C:\Users\runneradmin\AppData\Roaming\ComfyUI\DevToolsActivePort
[ 819s]   loop: DevToolsActivePort -> 58669 after 3s
[ 819s]   loop: reconnecting Playwright on port 58669
[ 819s]   loop: attached to file:///C:/Users/runneradmin/.comfy-test-cache/desktop/ComfyUI/resources/desktop-ui/index.html#/desktop-start
[ 819s]   loop: server ready after 1s
[ 846s]   loop: canvas ready after 23s
[ 846s]   loop: forcing renderer reload
[ 848s]   loop: canvas ready after 2s
[ 851s]   ext: closing Nodes Manager dialog
[ 851s]   ext: dismissing What's New popup
[ 851s]   ext: What's New popup not present
[ 851s]   ext: dismissing Node Pack Issues modal (if present)
[ 851s]   ext: Node Pack Issues modal not present
[ 851s]   ext: opening Templates sidebar
[ 852s]   ext: clicked Templates
[ 856s]   ext: locating "comfyui-sam3" section in Templates panel
[ 858s]   ext: clicked comfyui-sam3 section
[ 860s]   ext: clicking template scene_seg_interactive
[ 862s]   ext: clicked template scene_seg_interactive
[ 867s]   ext: installing WS execution listener
[ 867s]   ext: clicking Run
[ 867s]   ext: clicked Run
[ 867s]   ext: waiting for execution_success / execution_error
[ 936s]   ext: WS events=23 elapsed=68s
[ 936s]     ws: {'type': 'executing', 'ts': 1778492061892}
[ 936s]     ws: {'type': 'progress_state', 'ts': 1778492067685}
[ 936s]     ws: {'type': 'progress_state', 'ts': 1778492067688}
[ 936s]     ws: {'type': 'executing', 'ts': 1778492067688}
[ 936s]     ws: {'type': 'progress_state', 'ts': 1778492124481}
[ 936s]     ws: {'type': 'progress', 'ts': 1778492124486}
[ 936s]     ws: {'type': 'executed', 'ts': 1778492128398}
[ 936s]     ws: {'type': 'progress_state', 'ts': 1778492128537}
[ 936s]     ws: {'type': 'progress_state', 'ts': 1778492128540}
[ 936s]     ws: {'type': 'executing', 'ts': 1778492128540}
[ 936s]     ws: {'type': 'executed', 'ts': 1778492129119}
[ 936s]     ws: {'type': 'progress_state', 'ts': 1778492129132}
[ 936s]     ws: {'type': 'execution_success', 'ts': 1778492129138}
[ 936s]     ws: {'type': 'status', 'ts': 1778492129140}
[ 936s]     ws: {'type': 'executing', 'ts': 1778492129140}
[ 936s]   ext: execution_success after 68s
[ 941s] Captured 1186 frames
[ 942s] Wrote D:\a\comfy-gpu-ci\comfy-gpu-ci\comfy-test-logs\SAM3-0918\dev\windows-desktop\results.json (4 workflow(s), sha=9c07d8013c59)
ffmpeg version 7.1-essentials_build-www.gyan.dev Copyright (c) 2000-2024 the FFmpeg developers
  built with gcc 14.2.0 (Rev1, Built by MSYS2 project)
  configuration: --enable-gpl --enable-version3 --enable-static --disable-w32threads --disable-autodetect --enable-fontconfig --enable-iconv --enable-gnutls --enable-libxml2 --enable-gmp --enable-bzlib --enable-lzma --enable-zlib --enable-libsrt --enable-libssh --enable-libzmq --enable-avisynth --enable-sdl2 --enable-libwebp --enable-libx264 --enable-libx265 --enable-libxvid --enable-libaom --enable-libopenjpeg --enable-libvpx --enable-mediafoundation --enable-libass --enable-libfreetype --enable-libfribidi --enable-libharfbuzz --enable-libvidstab --enable-libvmaf --enable-libzimg --enable-amf --enable-cuda-llvm --enable-cuvid --enable-dxva2 --enable-d3d11va --enable-d3d12va --enable-ffnvcodec --enable-libvpl --enable-nvdec --enable-nvenc --enable-vaapi --enable-libgme --enable-libopenmpt --enable-libopencore-amrwb --enable-libmp3lame --enable-libtheora --enable-libvo-amrwbenc --enable-libgsm --enable-libopencore-amrnb --enable-libopus --enable-libspeex --enable-libvorbis --enable-librubberband
  libavutil      59. 39.100 / 59. 39.100
  libavcodec     61. 19.100 / 61. 19.100
  libavformat    61.  7.100 / 61.  7.100
  libavdevice    61.  3.100 / 61.  3.100
  libavfilter    10.  4.100 / 10.  4.100
  libswscale      8.  3.100 /  8.  3.100
  libswresample   5.  3.100 /  5.  3.100
  libpostproc    58.  3.100 / 58.  3.100
Input #0, image2, from 'D:\a\comfy-gpu-ci\comfy-gpu-ci\comfy-test-logs\SAM3-0918\dev\windows-desktop\debug\electron_inspect\frames\frame_%06d.png':
  Duration: 00:03:57.20, start: 0.000000, bitrate: N/A
  Stream #0:0: Video: png, rgb24(pc, gbr/bt709/iec61966-2-1), 1008x681, 5 fps, 5 tbr, 5 tbn
Stream mapping:
  Stream #0:0 -> #0:0 (png (native) -> h264 (libx264))
Press [q] to stop, [?] for help
[libx264 @ 0000021d3fb9dcc0] using cpu capabilities: MMX2 SSE2Fast SSSE3 SSE4.2 AVX FMA3 BMI2 AVX2
[libx264 @ 0000021d3fb9dcc0] profile High, level 3.1, 4:2:0, 8-bit
[libx264 @ 0000021d3fb9dcc0] 264 - core 164 r3192 c24e06c - H.264/MPEG-4 AVC codec - Copyleft 2003-2024 - http://www.videolan.org/x264.html - options: cabac=1 ref=3 deblock=1:0:0 analyse=0x3:0x113 me=hex subme=7 psy=1 psy_rd=1.00:0.00 mixed_ref=1 me_range=16 chroma_me=1 trellis=1 8x8dct=1 cqm=0 deadzone=21,11 fast_pskip=1 chroma_qp_offset=-2 threads=6 lookahead_threads=1 sliced_threads=0 nr=0 decimate=1 interlaced=0 bluray_compat=0 constrained_intra=0 bframes=3 b_pyramid=2 b_adapt=1 b_bias=0 direct=1 weightb=1 open_gop=0 weightp=2 keyint=250 keyint_min=5 scenecut=40 intra_refresh=0 rc_lookahead=40 rc=crf mbtree=1 crf=23.0 qcomp=0.60 qpmin=0 qpmax=69 qpstep=4 ip_ratio=1.40 aq=1:1.00
Output #0, mp4, to 'D:\a\comfy-gpu-ci\comfy-gpu-ci\comfy-test-logs\SAM3-0918\dev\windows-desktop\debug\electron_inspect\driver.mp4':
  Metadata:
    encoder         : Lavf61.7.100
  Stream #0:0: Video: h264 (avc1 / 0x31637661), yuv420p(tv, unknown/bt709/iec61966-2-1, progressive), 1008x682, q=2-31, 5 fps, 10240 tbn
      Metadata:
        encoder         : Lavc61.19.100 libx264
      Side data:
        cpb: bitrate max/min/avg: 0/0/0 buffer size: 0 vbv_delay: N/A
[vf#0:0 @ 0000021d3fb45fc0] Reconfiguring filter graph because video parameters changed to rgba(pc, gbr), 1008x681
frame=   28 fps=0.0 q=23.0 size=       0KiB time=00:00:05.20 bitrate=   0.1kbits/s speed= 9.6x    
[vf#0:0 @ 0000021d3fb45fc0] Reconfiguring filter graph because video parameters changed to rgb24(pc, gbr), 1008x681
frame=   90 fps= 84 q=23.0 size=     256KiB time=00:00:17.60 bitrate= 119.2kbits/s speed=16.5x    
frame=  153 fps= 95 q=23.0 size=     512KiB time=00:00:30.20 bitrate= 138.9kbits/s speed=18.8x    
frame=  223 fps=104 q=23.0 size=     512KiB time=00:00:44.20 bitrate=  94.9kbits/s speed=20.7x    
[vf#0:0 @ 0000021d3fb45fc0] Reconfiguring filter graph because video parameters changed to rgba(pc, gbr), 1008x681
[vf#0:0 @ 0000021d3fb45fc0] Reconfiguring filter graph because video parameters changed to rgb24(pc, gbr), 1008x681
frame=  283 fps=107 q=20.0 size=     512KiB time=00:00:56.20 bitrate=  74.6kbits/s speed=21.2x    
frame=  341 fps=107 q=23.0 size=    1024KiB time=00:01:07.80 bitrate= 123.7kbits/s speed=21.2x    
frame=  418 fps=112 q=23.0 size=    1024KiB time=00:01:23.20 bitrate= 100.8kbits/s speed=22.3x    
frame=  491 fps=115 q=23.0 size=    1024KiB time=00:01:37.80 bitrate=  85.8kbits/s speed=  23x    
[vf#0:0 @ 0000021d3fb45fc0] Reconfiguring filter graph because video parameters changed to rgba(pc, gbr), 1008x681
[vf#0:0 @ 0000021d3fb45fc0] Reconfiguring filter graph because video parameters changed to rgb24(pc, gbr), 1008x681
frame=  542 fps=114 q=23.0 size=    1280KiB time=00:01:48.00 bitrate=  97.1kbits/s speed=22.6x    
frame=  612 fps=115 q=23.0 size=    1536KiB time=00:02:02.00 bitrate= 103.1kbits/s speed=  23x    
frame=  693 fps=119 q=23.0 size=    1536KiB time=00:02:18.20 bitrate=  91.1kbits/s speed=23.7x    
[vf#0:0 @ 0000021d3fb45fc0] Reconfiguring filter graph because video parameters changed to rgba(pc, gbr), 1008x681
[vf#0:0 @ 0000021d3fb45fc0] Reconfiguring filter graph because video parameters changed to rgb24(pc, gbr), 1008x681
frame=  756 fps=119 q=23.0 size=    1536KiB time=00:02:30.80 bitrate=  83.4kbits/s speed=23.8x    
frame=  806 fps=118 q=23.0 size=    2048KiB time=00:02:40.80 bitrate= 104.3kbits/s speed=23.5x    
frame=  898 fps=122 q=23.0 size=    2048KiB time=00:02:59.20 bitrate=  93.6kbits/s speed=24.3x    
[vf#0:0 @ 0000021d3fb45fc0] Reconfiguring filter graph because video parameters changed to rgba(pc, gbr), 1008x681
frame=  978 fps=124 q=23.0 size=    2048KiB time=00:03:15.20 bitrate=  86.0kbits/s speed=24.8x    
[vf#0:0 @ 0000021d3fb45fc0] Reconfiguring filter graph because video parameters changed to rgb24(pc, gbr), 1008x681
frame= 1026 fps=122 q=23.0 size=    2304KiB time=00:03:24.80 bitrate=  92.2kbits/s speed=24.4x    
frame= 1095 fps=123 q=23.0 size=    2560KiB time=00:03:38.60 bitrate=  95.9kbits/s speed=24.5x    
[out#0/mp4 @ 0000021d3fe27e80] video:2739KiB audio:0KiB subtitle:0KiB other streams:0KiB global headers:0KiB muxing overhead: 0.530436%
frame= 1186 fps=127 q=-1.0 Lsize=    2753KiB time=00:03:56.80 bitrate=  95.2kbits/s speed=25.3x    
[libx264 @ 0000021d3fb9dcc0] frame I:20    Avg QP: 7.10  size: 37887
[libx264 @ 0000021d3fb9dcc0] frame P:336   Avg QP:15.58  size:  4217
[libx264 @ 0000021d3fb9dcc0] frame B:830   Avg QP:22.41  size:   758
[libx264 @ 0000021d3fb9dcc0] consecutive B-frames:  5.1%  3.9%  2.3% 88.7%
[libx264 @ 0000021d3fb9dcc0] mb I  I16..4: 64.0% 10.9% 25.0%
[libx264 @ 0000021d3fb9dcc0] mb P  I16..4:  2.3%  2.3%  2.5%  P16..4:  2.0%  0.6%  0.4%  0.0%  0.0%    skip:89.8%
[libx264 @ 0000021d3fb9dcc0] mb B  I16..4:  0.3%  0.3%  0.2%  B16..8:  4.1%  0.5%  0.2%  direct: 0.2%  skip:94.4%  L0:58.2% L1:39.1% BI: 2.7%
[libx264 @ 0000021d3fb9dcc0] 8x8 transform intra:24.8% inter:50.9%
[libx264 @ 0000021d3fb9dcc0] coded y,uvDC,uvAC intra: 35.8% 19.2% 15.4% inter: 0.9% 0.7% 0.2%
[libx264 @ 0000021d3fb9dcc0] i16 v,h,dc,p: 68% 28%  2%  2%
[libx264 @ 0000021d3fb9dcc0] i8 v,h,dc,ddl,ddr,vr,hd,vl,hu: 31% 18% 36%  2%  2%  2%  3%  2%  4%
[libx264 @ 0000021d3fb9dcc0] i4 v,h,dc,ddl,ddr,vr,hd,vl,hu: 36% 32% 14%  2%  3%  3%  4%  3%  4%
[libx264 @ 0000021d3fb9dcc0] i8c dc,h,v,p: 78% 13%  6%  3%
[libx264 @ 0000021d3fb9dcc0] Weighted P-Frames: Y:2.1% UV:1.5%
[libx264 @ 0000021d3fb9dcc0] ref P L0: 66.2%  3.3% 16.1% 13.6%  0.7%
[libx264 @ 0000021d3fb9dcc0] ref B L0: 63.0% 35.0%  1.9%
[libx264 @ 0000021d3fb9dcc0] ref B L1: 96.4%  3.6%
[libx264 @ 0000021d3fb9dcc0] kb/s:94.56
[ 951s] Wrote D:\a\comfy-gpu-ci\comfy-gpu-ci\comfy-test-logs\SAM3-0918\dev\windows-desktop\debug\electron_inspect\driver.mp4
ffmpeg version 7.1-essentials_build-www.gyan.dev Copyright (c) 2000-2024 the FFmpeg developers
  built with gcc 14.2.0 (Rev1, Built by MSYS2 project)
  configuration: --enable-gpl --enable-version3 --enable-static --disable-w32threads --disable-autodetect --enable-fontconfig --enable-iconv --enable-gnutls --enable-libxml2 --enable-gmp --enable-bzlib --enable-lzma --enable-zlib --enable-libsrt --enable-libssh --enable-libzmq --enable-avisynth --enable-sdl2 --enable-libwebp --enable-libx264 --enable-libx265 --enable-libxvid --enable-libaom --enable-libopenjpeg --enable-libvpx --enable-mediafoundation --enable-libass --enable-libfreetype --enable-libfribidi --enable-libharfbuzz --enable-libvidstab --enable-libvmaf --enable-libzimg --enable-amf --enable-cuda-llvm --enable-cuvid --enable-dxva2 --enable-d3d11va --enable-d3d12va --enable-ffnvcodec --enable-libvpl --enable-nvdec --enable-nvenc --enable-vaapi --enable-libgme --enable-libopenmpt --enable-libopencore-amrwb --enable-libmp3lame --enable-libtheora --enable-libvo-amrwbenc --enable-libgsm --enable-libopencore-amrnb --enable-libopus --enable-libspeex --enable-libvorbis --enable-librubberband
  libavutil      59. 39.100 / 59. 39.100
  libavcodec     61. 19.100 / 61. 19.100
  libavformat    61.  7.100 / 61.  7.100
  libavdevice    61.  3.100 / 61.  3.100
  libavfilter    10.  4.100 / 10.  4.100
  libswscale      8.  3.100 /  8.  3.100
  libswresample   5.  3.100 /  5.  3.100
  libpostproc    58.  3.100 / 58.  3.100
Input #0, image2, from 'D:\a\comfy-gpu-ci\comfy-gpu-ci\comfy-test-logs\SAM3-0918\dev\windows-desktop\debug\electron_inspect\frames\frame_%06d.png':
  Duration: 00:02:48.60, start: 0.000000, bitrate: N/A
  Stream #0:0: Video: png, rgb24(pc, gbr/bt709/iec61966-2-1), 1008x681, 5 fps, 5 tbr, 5 tbn
Stream mapping:
  Stream #0:0 -> #0:0 (png (native) -> h264 (libx264))
Press [q] to stop, [?] for help
[libx264 @ 000002282378c900] using cpu capabilities: MMX2 SSE2Fast SSSE3 SSE4.2 AVX FMA3 BMI2 AVX2
[libx264 @ 000002282378c900] profile High, level 3.1, 4:2:0, 8-bit
[libx264 @ 000002282378c900] 264 - core 164 r3192 c24e06c - H.264/MPEG-4 AVC codec - Copyleft 2003-2024 - http://www.videolan.org/x264.html - options: cabac=1 ref=3 deblock=1:0:0 analyse=0x3:0x113 me=hex subme=7 psy=1 psy_rd=1.00:0.00 mixed_ref=1 me_range=16 chroma_me=1 trellis=1 8x8dct=1 cqm=0 deadzone=21,11 fast_pskip=1 chroma_qp_offset=-2 threads=6 lookahead_threads=1 sliced_threads=0 nr=0 decimate=1 interlaced=0 bluray_compat=0 constrained_intra=0 bframes=3 b_pyramid=2 b_adapt=1 b_bias=0 direct=1 weightb=1 open_gop=0 weightp=2 keyint=250 keyint_min=5 scenecut=40 intra_refresh=0 rc_lookahead=40 rc=crf mbtree=1 crf=23.0 qcomp=0.60 qpmin=0 qpmax=69 qpstep=4 ip_ratio=1.40 aq=1:1.00
Output #0, mp4, to 'D:\a\comfy-gpu-ci\comfy-gpu-ci\comfy-test-logs\SAM3-0918\dev\windows-desktop\videos\image_seg_point\driver.mp4':
  Metadata:
    encoder         : Lavf61.7.100
  Stream #0:0: Video: h264 (avc1 / 0x31637661), yuv420p(tv, unknown/bt709/iec61966-2-1, progressive), 1008x682, q=2-31, 5 fps, 10240 tbn
      Metadata:
        encoder         : Lavc61.19.100 libx264
      Side data:
        cpb: bitrate max/min/avg: 0/0/0 buffer size: 0 vbv_delay: N/A
frame=   32 fps=0.0 q=23.0 size=       0KiB time=00:00:06.00 bitrate=   0.1kbits/s speed=11.2x    
frame=  103 fps= 99 q=23.0 size=       0KiB time=00:00:20.20 bitrate=   0.0kbits/s speed=19.3x    
[out#0/mp4 @ 00000228231b5300] video:113KiB audio:0KiB subtitle:0KiB other streams:0KiB global headers:0KiB muxing overhead: 2.532898%
frame=  174 fps=125 q=-1.0 Lsize=     116KiB time=00:00:34.40 bitrate=  27.7kbits/s speed=24.8x    
[libx264 @ 000002282378c900] frame I:1     Avg QP:10.93  size: 48050
[libx264 @ 000002282378c900] frame P:44    Avg QP:13.92  size:   863
[libx264 @ 000002282378c900] frame B:129   Avg QP:23.00  size:   228
[libx264 @ 000002282378c900] consecutive B-frames:  0.6%  1.1%  1.7% 96.6%
[libx264 @ 000002282378c900] mb I  I16..4: 45.6% 28.8% 25.6%
[libx264 @ 000002282378c900] mb P  I16..4:  0.3%  0.0%  0.2%  P16..4:  0.9%  0.1%  0.1%  0.0%  0.0%    skip:98.3%
[libx264 @ 000002282378c900] mb B  I16..4:  0.0%  0.1%  0.0%  B16..8:  6.1%  0.2%  0.0%  direct: 0.0%  skip:93.6%  L0:62.1% L1:37.7% BI: 0.2%
[libx264 @ 000002282378c900] 8x8 transform intra:31.1% inter:52.6%
[libx264 @ 000002282378c900] coded y,uvDC,uvAC intra: 37.4% 16.5% 13.6% inter: 0.1% 0.1% 0.0%
[libx264 @ 000002282378c900] i16 v,h,dc,p: 53% 47%  0%  0%
[libx264 @ 000002282378c900] i8 v,h,dc,ddl,ddr,vr,hd,vl,hu: 26% 13% 60%  0%  0%  0%  0%  0%  0%
[libx264 @ 000002282378c900] i4 v,h,dc,ddl,ddr,vr,hd,vl,hu: 35% 35% 11%  2%  3%  3%  4%  3%  4%
[libx264 @ 000002282378c900] i8c dc,h,v,p: 69% 24%  6%  1%
[libx264 @ 000002282378c900] Weighted P-Frames: Y:0.0% UV:0.0%
[libx264 @ 000002282378c900] ref P L0: 81.8%  0.6% 15.1%  2.5%
[libx264 @ 000002282378c900] ref B L0: 48.2% 51.3%  0.4%
[libx264 @ 000002282378c900] ref B L1: 98.9%  1.1%
[libx264 @ 000002282378c900] kb/s:26.55
[ 953s]   videos/image_seg_point/driver.mp4 placed (frames 344..517)
[ 953s]   screenshots/image_seg_point_executed.png placed
ffmpeg version 7.1-essentials_build-www.gyan.dev Copyright (c) 2000-2024 the FFmpeg developers
  built with gcc 14.2.0 (Rev1, Built by MSYS2 project)
  configuration: --enable-gpl --enable-version3 --enable-static --disable-w32threads --disable-autodetect --enable-fontconfig --enable-iconv --enable-gnutls --enable-libxml2 --enable-gmp --enable-bzlib --enable-lzma --enable-zlib --enable-libsrt --enable-libssh --enable-libzmq --enable-avisynth --enable-sdl2 --enable-libwebp --enable-libx264 --enable-libx265 --enable-libxvid --enable-libaom --enable-libopenjpeg --enable-libvpx --enable-mediafoundation --enable-libass --enable-libfreetype --enable-libfribidi --enable-libharfbuzz --enable-libvidstab --enable-libvmaf --enable-libzimg --enable-amf --enable-cuda-llvm --enable-cuvid --enable-dxva2 --enable-d3d11va --enable-d3d12va --enable-ffnvcodec --enable-libvpl --enable-nvdec --enable-nvenc --enable-vaapi --enable-libgme --enable-libopenmpt --enable-libopencore-amrwb --enable-libmp3lame --enable-libtheora --enable-libvo-amrwbenc --enable-libgsm --enable-libopencore-amrnb --enable-libopus --enable-libspeex --enable-libvorbis --enable-librubberband
  libavutil      59. 39.100 / 59. 39.100
  libavcodec     61. 19.100 / 61. 19.100
  libavformat    61.  7.100 / 61.  7.100
  libavdevice    61.  3.100 / 61.  3.100
  libavfilter    10.  4.100 / 10.  4.100
  libswscale      8.  3.100 /  8.  3.100
  libswresample   5.  3.100 /  5.  3.100
  libpostproc    58.  3.100 / 58.  3.100
Input #0, image2, from 'D:\a\comfy-gpu-ci\comfy-gpu-ci\comfy-test-logs\SAM3-0918\dev\windows-desktop\debug\electron_inspect\frames\frame_%06d.png':
  Duration: 00:02:03.20, start: 0.000000, bitrate: N/A
  Stream #0:0: Video: png, rgba(pc, gbr/bt709/iec61966-2-1), 1008x681, 5 fps, 5 tbr, 5 tbn
Stream mapping:
  Stream #0:0 -> #0:0 (png (native) -> h264 (libx264))
Press [q] to stop, [?] for help
[libx264 @ 000001ba6ec545c0] using cpu capabilities: MMX2 SSE2Fast SSSE3 SSE4.2 AVX FMA3 BMI2 AVX2
[libx264 @ 000001ba6ec545c0] profile High, level 3.1, 4:2:0, 8-bit
[libx264 @ 000001ba6ec545c0] 264 - core 164 r3192 c24e06c - H.264/MPEG-4 AVC codec - Copyleft 2003-2024 - http://www.videolan.org/x264.html - options: cabac=1 ref=3 deblock=1:0:0 analyse=0x3:0x113 me=hex subme=7 psy=1 psy_rd=1.00:0.00 mixed_ref=1 me_range=16 chroma_me=1 trellis=1 8x8dct=1 cqm=0 deadzone=21,11 fast_pskip=1 chroma_qp_offset=-2 threads=6 lookahead_threads=1 sliced_threads=0 nr=0 decimate=1 interlaced=0 bluray_compat=0 constrained_intra=0 bframes=3 b_pyramid=2 b_adapt=1 b_bias=0 direct=1 weightb=1 open_gop=0 weightp=2 keyint=250 keyint_min=5 scenecut=40 intra_refresh=0 rc_lookahead=40 rc=crf mbtree=1 crf=23.0 qcomp=0.60 qpmin=0 qpmax=69 qpstep=4 ip_ratio=1.40 aq=1:1.00
Output #0, mp4, to 'D:\a\comfy-gpu-ci\comfy-gpu-ci\comfy-test-logs\SAM3-0918\dev\windows-desktop\videos\image_seg_text\driver.mp4':
  Metadata:
    encoder         : Lavf61.7.100
  Stream #0:0: Video: h264 (avc1 / 0x31637661), yuv420p(tv, unknown/bt709/iec61966-2-1, progressive), 1008x682, q=2-31, 5 fps, 10240 tbn
      Metadata:
        encoder         : Lavc61.19.100 libx264
      Side data:
        cpb: bitrate max/min/avg: 0/0/0 buffer size: 0 vbv_delay: N/A
[vf#0:0 @ 000001ba6eba0dc0] Reconfiguring filter graph because video parameters changed to rgb24(pc, gbr), 1008x681
frame=   31 fps=0.0 q=23.0 size=       0KiB time=00:00:05.80 bitrate=   0.1kbits/s speed=11.2x    
frame=  111 fps=107 q=23.0 size=       0KiB time=00:00:21.80 bitrate=   0.0kbits/s speed=21.1x    
[out#0/mp4 @ 000001ba6eba5940] video:129KiB audio:0KiB subtitle:0KiB other streams:0KiB global headers:0KiB muxing overhead: 2.288089%
frame=  180 fps=139 q=-1.0 Lsize=     132KiB time=00:00:35.60 bitrate=  30.4kbits/s speed=27.6x    
[libx264 @ 000001ba6ec545c0] frame I:2     Avg QP:12.16  size: 43726
[libx264 @ 000001ba6ec545c0] frame P:45    Avg QP:13.34  size:   770
[libx264 @ 000001ba6ec545c0] frame B:133   Avg QP:23.65  size:    70
[libx264 @ 000001ba6ec545c0] consecutive B-frames:  1.1%  1.1%  0.0% 97.8%
[libx264 @ 000001ba6ec545c0] mb I  I16..4: 48.7% 23.4% 27.9%
[libx264 @ 000001ba6ec545c0] mb P  I16..4:  0.3%  0.1%  0.3%  P16..4:  0.6%  0.1%  0.1%  0.0%  0.0%    skip:98.6%
[libx264 @ 000001ba6ec545c0] mb B  I16..4:  0.1%  0.0%  0.0%  B16..8:  0.7%  0.0%  0.0%  direct: 0.0%  skip:99.2%  L0:44.9% L1:54.8% BI: 0.3%
[libx264 @ 000001ba6ec545c0] 8x8 transform intra:21.8% inter:73.4%
[libx264 @ 000001ba6ec545c0] coded y,uvDC,uvAC intra: 41.9% 21.7% 17.6% inter: 0.1% 0.1% 0.0%
[libx264 @ 000001ba6ec545c0] i16 v,h,dc,p: 52% 42%  0%  6%
[libx264 @ 000001ba6ec545c0] i8 v,h,dc,ddl,ddr,vr,hd,vl,hu: 48% 18% 28%  0%  3%  2%  1%  0%  1%
[libx264 @ 000001ba6ec545c0] i4 v,h,dc,ddl,ddr,vr,hd,vl,hu: 40% 35% 11%  2%  3%  2%  3%  2%  3%
[libx264 @ 000001ba6ec545c0] i8c dc,h,v,p: 69% 16%  9%  6%
[libx264 @ 000001ba6ec545c0] Weighted P-Frames: Y:0.0% UV:0.0%
[libx264 @ 000001ba6ec545c0] ref P L0: 85.8%  1.2% 10.0%  2.9%
[libx264 @ 000001ba6ec545c0] ref B L0: 68.6% 29.6%  1.9%
[libx264 @ 000001ba6ec545c0] ref B L1: 91.5%  8.5%
[libx264 @ 000001ba6ec545c0] kb/s:29.21
[ 954s]   videos/image_seg_text/driver.mp4 placed (frames 571..750)
[ 954s]   screenshots/image_seg_text_executed.png placed
ffmpeg version 7.1-essentials_build-www.gyan.dev Copyright (c) 2000-2024 the FFmpeg developers
  built with gcc 14.2.0 (Rev1, Built by MSYS2 project)
  configuration: --enable-gpl --enable-version3 --enable-static --disable-w32threads --disable-autodetect --enable-fontconfig --enable-iconv --enable-gnutls --enable-libxml2 --enable-gmp --enable-bzlib --enable-lzma --enable-zlib --enable-libsrt --enable-libssh --enable-libzmq --enable-avisynth --enable-sdl2 --enable-libwebp --enable-libx264 --enable-libx265 --enable-libxvid --enable-libaom --enable-libopenjpeg --enable-libvpx --enable-mediafoundation --enable-libass --enable-libfreetype --enable-libfribidi --enable-libharfbuzz --enable-libvidstab --enable-libvmaf --enable-libzimg --enable-amf --enable-cuda-llvm --enable-cuvid --enable-dxva2 --enable-d3d11va --enable-d3d12va --enable-ffnvcodec --enable-libvpl --enable-nvdec --enable-nvenc --enable-vaapi --enable-libgme --enable-libopenmpt --enable-libopencore-amrwb --enable-libmp3lame --enable-libtheora --enable-libvo-amrwbenc --enable-libgsm --enable-libopencore-amrnb --enable-libopus --enable-libspeex --enable-libvorbis --enable-librubberband
  libavutil      59. 39.100 / 59. 39.100
  libavcodec     61. 19.100 / 61. 19.100
  libavformat    61.  7.100 / 61.  7.100
  libavdevice    61.  3.100 / 61.  3.100
  libavfilter    10.  4.100 / 10.  4.100
  libswscale      8.  3.100 /  8.  3.100
  libswresample   5.  3.100 /  5.  3.100
  libpostproc    58.  3.100 / 58.  3.100
Input #0, image2, from 'D:\a\comfy-gpu-ci\comfy-gpu-ci\comfy-test-logs\SAM3-0918\dev\windows-desktop\debug\electron_inspect\frames\frame_%06d.png':
  Duration: 00:01:16.80, start: 0.000000, bitrate: N/A
  Stream #0:0: Video: png, rgb24(pc, gbr/bt709/iec61966-2-1), 1008x681, 5 fps, 5 tbr, 5 tbn
Stream mapping:
  Stream #0:0 -> #0:0 (png (native) -> h264 (libx264))
Press [q] to stop, [?] for help
[libx264 @ 00000214c17c4a80] using cpu capabilities: MMX2 SSE2Fast SSSE3 SSE4.2 AVX FMA3 BMI2 AVX2
[libx264 @ 00000214c17c4a80] profile High, level 3.1, 4:2:0, 8-bit
[libx264 @ 00000214c17c4a80] 264 - core 164 r3192 c24e06c - H.264/MPEG-4 AVC codec - Copyleft 2003-2024 - http://www.videolan.org/x264.html - options: cabac=1 ref=3 deblock=1:0:0 analyse=0x3:0x113 me=hex subme=7 psy=1 psy_rd=1.00:0.00 mixed_ref=1 me_range=16 chroma_me=1 trellis=1 8x8dct=1 cqm=0 deadzone=21,11 fast_pskip=1 chroma_qp_offset=-2 threads=6 lookahead_threads=1 sliced_threads=0 nr=0 decimate=1 interlaced=0 bluray_compat=0 constrained_intra=0 bframes=3 b_pyramid=2 b_adapt=1 b_bias=0 direct=1 weightb=1 open_gop=0 weightp=2 keyint=250 keyint_min=5 scenecut=40 intra_refresh=0 rc_lookahead=40 rc=crf mbtree=1 crf=23.0 qcomp=0.60 qpmin=0 qpmax=69 qpstep=4 ip_ratio=1.40 aq=1:1.00
Output #0, mp4, to 'D:\a\comfy-gpu-ci\comfy-gpu-ci\comfy-test-logs\SAM3-0918\dev\windows-desktop\videos\scene_seg\driver.mp4':
  Metadata:
    encoder         : Lavf61.7.100
  Stream #0:0: Video: h264 (avc1 / 0x31637661), yuv420p(tv, unknown/bt709/iec61966-2-1, progressive), 1008x682, q=2-31, 5 fps, 10240 tbn
      Metadata:
        encoder         : Lavc61.19.100 libx264
      Side data:
        cpb: bitrate max/min/avg: 0/0/0 buffer size: 0 vbv_delay: N/A
frame=   36 fps=0.0 q=23.0 size=       0KiB time=00:00:06.80 bitrate=   0.1kbits/s speed=13.1x    
frame=  128 fps=124 q=23.0 size=       0KiB time=00:00:25.20 bitrate=   0.0kbits/s speed=24.4x    
[out#0/mp4 @ 00000214c17cbb80] video:135KiB audio:0KiB subtitle:0KiB other streams:0KiB global headers:0KiB muxing overhead: 2.225009%
frame=  186 fps=158 q=-1.0 Lsize=     139KiB time=00:00:36.80 bitrate=  30.8kbits/s speed=31.3x    
[libx264 @ 00000214c17c4a80] frame I:2     Avg QP:12.34  size: 33317
[libx264 @ 00000214c17c4a80] frame P:48    Avg QP:13.78  size:  1269
[libx264 @ 00000214c17c4a80] frame B:136   Avg QP:23.67  size:    77
[libx264 @ 00000214c17c4a80] consecutive B-frames:  2.2%  1.1%  0.0% 96.8%
[libx264 @ 00000214c17c4a80] mb I  I16..4: 40.6% 37.6% 21.8%
[libx264 @ 00000214c17c4a80] mb P  I16..4:  0.6%  0.2%  0.5%  P16..4:  0.9%  0.1%  0.1%  0.0%  0.0%    skip:97.5%
[libx264 @ 00000214c17c4a80] mb B  I16..4:  0.0%  0.1%  0.0%  B16..8:  0.7%  0.0%  0.0%  direct: 0.0%  skip:99.1%  L0:51.7% L1:47.7% BI: 0.6%
[libx264 @ 00000214c17c4a80] 8x8 transform intra:33.9% inter:58.7%
[libx264 @ 00000214c17c4a80] coded y,uvDC,uvAC intra: 17.3% 21.6% 17.0% inter: 0.1% 0.1% 0.0%
[libx264 @ 00000214c17c4a80] i16 v,h,dc,p: 54% 39%  0%  6%
[libx264 @ 00000214c17c4a80] i8 v,h,dc,ddl,ddr,vr,hd,vl,hu: 52% 20% 24%  0%  2%  1%  1%  0%  1%
[libx264 @ 00000214c17c4a80] i4 v,h,dc,ddl,ddr,vr,hd,vl,hu: 33% 36% 14%  2%  3%  3%  4%  2%  4%
[libx264 @ 00000214c17c4a80] i8c dc,h,v,p: 70% 15%  9%  5%
[libx264 @ 00000214c17c4a80] Weighted P-Frames: Y:0.0% UV:0.0%
[libx264 @ 00000214c17c4a80] ref P L0: 83.8%  3.0% 11.3%  1.9%
[libx264 @ 00000214c17c4a80] ref B L0: 69.5% 28.2%  2.3%
[libx264 @ 00000214c17c4a80] ref B L1: 93.9%  6.1%
[libx264 @ 00000214c17c4a80] kb/s:29.69
[ 955s]   videos/scene_seg/driver.mp4 placed (frames 803..988)
[ 955s]   screenshots/scene_seg_executed.png placed
ffmpeg version 7.1-essentials_build-www.gyan.dev Copyright (c) 2000-2024 the FFmpeg developers
  built with gcc 14.2.0 (Rev1, Built by MSYS2 project)
  configuration: --enable-gpl --enable-version3 --enable-static --disable-w32threads --disable-autodetect --enable-fontconfig --enable-iconv --enable-gnutls --enable-libxml2 --enable-gmp --enable-bzlib --enable-lzma --enable-zlib --enable-libsrt --enable-libssh --enable-libzmq --enable-avisynth --enable-sdl2 --enable-libwebp --enable-libx264 --enable-libx265 --enable-libxvid --enable-libaom --enable-libopenjpeg --enable-libvpx --enable-mediafoundation --enable-libass --enable-libfreetype --enable-libfribidi --enable-libharfbuzz --enable-libvidstab --enable-libvmaf --enable-libzimg --enable-amf --enable-cuda-llvm --enable-cuvid --enable-dxva2 --enable-d3d11va --enable-d3d12va --enable-ffnvcodec --enable-libvpl --enable-nvdec --enable-nvenc --enable-vaapi --enable-libgme --enable-libopenmpt --enable-libopencore-amrwb --enable-libmp3lame --enable-libtheora --enable-libvo-amrwbenc --enable-libgsm --enable-libopencore-amrnb --enable-libopus --enable-libspeex --enable-libvorbis --enable-librubberband
  libavutil      59. 39.100 / 59. 39.100
  libavcodec     61. 19.100 / 61. 19.100
  libavformat    61.  7.100 / 61.  7.100
  libavdevice    61.  3.100 / 61.  3.100
  libavfilter    10.  4.100 / 10.  4.100
  libswscale      8.  3.100 /  8.  3.100
  libswresample   5.  3.100 /  5.  3.100
  libpostproc    58.  3.100 / 58.  3.100
Input #0, image2, from 'D:\a\comfy-gpu-ci\comfy-gpu-ci\comfy-test-logs\SAM3-0918\dev\windows-desktop\debug\electron_inspect\frames\frame_%06d.png':
  Duration: 00:00:29.40, start: 0.000000, bitrate: N/A
  Stream #0:0: Video: png, rgb24(pc, gbr/bt709/iec61966-2-1), 1008x681, 5 fps, 5 tbr, 5 tbn
Stream mapping:
  Stream #0:0 -> #0:0 (png (native) -> h264 (libx264))
Press [q] to stop, [?] for help
[libx264 @ 0000018f4f55c600] using cpu capabilities: MMX2 SSE2Fast SSSE3 SSE4.2 AVX FMA3 BMI2 AVX2
[libx264 @ 0000018f4f55c600] profile High, level 3.1, 4:2:0, 8-bit
[libx264 @ 0000018f4f55c600] 264 - core 164 r3192 c24e06c - H.264/MPEG-4 AVC codec - Copyleft 2003-2024 - http://www.videolan.org/x264.html - options: cabac=1 ref=3 deblock=1:0:0 analyse=0x3:0x113 me=hex subme=7 psy=1 psy_rd=1.00:0.00 mixed_ref=1 me_range=16 chroma_me=1 trellis=1 8x8dct=1 cqm=0 deadzone=21,11 fast_pskip=1 chroma_qp_offset=-2 threads=6 lookahead_threads=1 sliced_threads=0 nr=0 decimate=1 interlaced=0 bluray_compat=0 constrained_intra=0 bframes=3 b_pyramid=2 b_adapt=1 b_bias=0 direct=1 weightb=1 open_gop=0 weightp=2 keyint=250 keyint_min=5 scenecut=40 intra_refresh=0 rc_lookahead=40 rc=crf mbtree=1 crf=23.0 qcomp=0.60 qpmin=0 qpmax=69 qpstep=4 ip_ratio=1.40 aq=1:1.00
Output #0, mp4, to 'D:\a\comfy-gpu-ci\comfy-gpu-ci\comfy-test-logs\SAM3-0918\dev\windows-desktop\videos\scene_seg_interactive\driver.mp4':
  Metadata:
    encoder         : Lavf61.7.100
  Stream #0:0: Video: h264 (avc1 / 0x31637661), yuv420p(tv, unknown/bt709/iec61966-2-1, progressive), 1008x682, q=2-31, 5 fps, 10240 tbn
      Metadata:
        encoder         : Lavc61.19.100 libx264
      Side data:
        cpb: bitrate max/min/avg: 0/0/0 buffer size: 0 vbv_delay: N/A
frame=   32 fps=0.0 q=23.0 size=       0KiB time=00:00:06.00 bitrate=   0.1kbits/s speed=11.6x    
frame=  131 fps=127 q=23.0 size=       0KiB time=N/A bitrate=N/A speed=N/A    
[out#0/mp4 @ 0000018f4f06bbc0] video:137KiB audio:0KiB subtitle:0KiB other streams:0KiB global headers:0KiB muxing overhead: 1.867846%
frame=  147 fps=134 q=-1.0 Lsize=     139KiB time=00:00:29.00 bitrate=  39.4kbits/s speed=26.5x    
[libx264 @ 0000018f4f55c600] frame I:2     Avg QP:11.88  size: 33713
[libx264 @ 0000018f4f55c600] frame P:38    Avg QP:13.01  size:  1405
[libx264 @ 0000018f4f55c600] frame B:107   Avg QP:20.53  size:   175
[libx264 @ 0000018f4f55c600] consecutive B-frames:  2.0%  2.7%  0.0% 95.2%
[libx264 @ 0000018f4f55c600] mb I  I16..4: 44.9% 32.1% 22.9%
[libx264 @ 0000018f4f55c600] mb P  I16..4:  0.8%  0.3%  0.5%  P16..4:  1.0%  0.1%  0.1%  0.0%  0.0%    skip:97.3%
[libx264 @ 0000018f4f55c600] mb B  I16..4:  0.0%  0.0%  0.0%  B16..8:  6.3%  0.1%  0.0%  direct: 0.0%  skip:93.5%  L0:73.5% L1:26.4% BI: 0.0%
[libx264 @ 0000018f4f55c600] 8x8 transform intra:28.8% inter:70.1%
[libx264 @ 0000018f4f55c600] coded y,uvDC,uvAC intra: 26.5% 20.7% 16.3% inter: 0.1% 0.2% 0.1%
[libx264 @ 0000018f4f55c600] i16 v,h,dc,p: 51% 42%  1%  6%
[libx264 @ 0000018f4f55c600] i8 v,h,dc,ddl,ddr,vr,hd,vl,hu: 39% 19% 38%  0%  2%  1%  1%  0%  1%
[libx264 @ 0000018f4f55c600] i4 v,h,dc,ddl,ddr,vr,hd,vl,hu: 35% 35% 13%  2%  3%  3%  3%  2%  3%
[libx264 @ 0000018f4f55c600] i8c dc,h,v,p: 71% 15%  9%  5%
[libx264 @ 0000018f4f55c600] Weighted P-Frames: Y:0.0% UV:0.0%
[libx264 @ 0000018f4f55c600] ref P L0: 76.2%  1.8% 18.5%  3.5%
[libx264 @ 0000018f4f55c600] ref B L0: 30.4% 69.3%  0.2%
[libx264 @ 0000018f4f55c600] ref B L1: 99.0%  1.0%
[libx264 @ 0000018f4f55c600] kb/s:37.97
[ 956s]   videos/scene_seg_interactive/driver.mp4 placed (frames 1040..1186)
[ 956s]   screenshots/scene_seg_interactive_executed.png placed
[ 957s]   removed D:\a\comfy-gpu-ci\comfy-gpu-ci\comfy-test-logs\SAM3-0918\dev\windows-desktop\debug\electron_inspect\frames after successful encode
